<svg width="41" height="9" viewBox="0 0 41 9" fill="none" xmlns="http://www.w3.org/2000/svg">
<path d="M5.344 7.288C5.032 7.544 4.66 7.736 4.228 7.864C3.804 8 3.376 8.072 2.944 8.08C2.512 8.088 2.108 8.036 1.732 7.924C1.356 7.812 1.06 7.636 0.844 7.396C0.588 7.124 0.5 6.852 0.58 6.58C0.62 6.468 0.692 6.38 0.796 6.316C0.892 6.252 1.012 6.236 1.156 6.268C1.252 6.276 1.32 6.252 1.36 6.196C1.408 6.132 1.448 6.064 1.48 5.992C1.512 5.912 1.548 5.84 1.588 5.776C1.628 5.704 1.692 5.668 1.78 5.668C3.188 5.708 3.92 5.584 3.976 5.296C3.88 5.208 3.76 5.132 3.616 5.068C3.48 5.004 3.34 4.94 3.196 4.876C2.844 4.716 2.608 4.54 2.488 4.348C2.336 4.268 2.22 4.076 2.14 3.772C2.1 3.636 2.08 3.496 2.08 3.352C2.08 3.208 2.104 3.076 2.152 2.956C2.128 2.644 2.32 2.3 2.728 1.924C2.84 1.82 2.98 1.708 3.148 1.588C3.316 1.468 3.568 1.352 3.904 1.24C4.24 1.128 4.572 1.048 4.9 1C5.236 0.944 5.536 0.924 5.8 0.94C6.072 0.956 6.264 1.02 6.376 1.132C6.496 1.244 6.588 1.384 6.652 1.552C6.724 1.72 6.748 1.884 6.724 2.044C6.66 2.404 6.364 2.652 5.836 2.788C5.172 2.884 4.852 2.972 4.876 3.052C4.876 3.068 4.848 3.088 4.792 3.112C5.408 3.536 5.836 3.952 6.076 4.36C6.404 4.92 6.452 5.544 6.22 6.232C6.26 6.456 6.06 6.736 5.62 7.072C5.516 7.152 5.424 7.224 5.344 7.288ZM8.63031 1.732C8.85431 1.516 9.10231 1.392 9.37431 1.36C9.65431 1.32 9.89831 1.348 10.1063 1.444C10.3223 1.54 10.4783 1.696 10.5743 1.912C10.6783 2.12 10.6663 2.36 10.5383 2.632C10.2663 3.032 10.0503 3.464 9.89031 3.928C9.73031 4.392 9.58231 4.86 9.44631 5.332C10.1823 4.868 10.7983 4.176 11.2943 3.256C11.4383 2.984 11.5943 2.708 11.7623 2.428L11.9423 2.092L12.3023 1.516C12.3503 1.364 12.4343 1.268 12.5543 1.228C12.6743 1.18 12.8023 1.156 12.9383 1.156C13.0823 1.156 13.2263 1.16 13.3703 1.168C13.5143 1.168 13.6463 1.128 13.7663 1.048C13.8863 0.968 14.0263 0.94 14.1863 0.964C14.3543 0.98 14.5023 1.032 14.6303 1.12C14.7663 1.208 14.8663 1.316 14.9303 1.444C15.0023 1.564 15.0103 1.684 14.9543 1.804C14.6183 2.524 14.1583 3.864 13.5743 5.824C13.4383 6.264 13.3103 6.632 13.1903 6.928C12.9903 7.176 12.7383 7.344 12.4343 7.432C12.1303 7.52 11.8423 7.544 11.5703 7.504C11.3063 7.472 11.0943 7.38 10.9343 7.228C10.7743 7.084 10.7383 6.9 10.8263 6.676C10.6023 6.86 10.3703 7.028 10.1303 7.18C9.89031 7.332 9.59831 7.432 9.25431 7.48C8.91831 7.528 8.59431 7.512 8.28231 7.432C7.97031 7.36 7.70231 7.216 7.47831 7C7.26231 6.784 7.14631 6.496 7.13031 6.136C7.08231 4.872 7.58231 3.404 8.63031 1.732ZM16.0157 1.78C16.0317 1.628 16.1277 1.504 16.3037 1.408C16.4797 1.312 16.6757 1.264 16.8917 1.264C17.1077 1.264 17.3157 1.316 17.5157 1.42C17.7237 1.516 17.8637 1.684 17.9357 1.924C18.6157 1.332 19.2357 1.104 19.7957 1.24C19.9877 1.28 20.1517 1.392 20.2877 1.576C20.6957 1.184 21.1477 0.927999 21.6437 0.808C22.2677 0.783999 22.7157 0.927999 22.9877 1.24C23.0277 1.28 23.0677 1.324 23.1077 1.372C23.2197 1.492 23.2837 1.572 23.2997 1.612C23.4437 1.836 23.4837 2.352 23.4197 3.16C23.3317 4.208 23.1317 5.26 22.8197 6.316C22.6517 6.852 22.4997 7.128 22.3637 7.144C22.2837 7.16 22.2077 7.16 22.1357 7.144C22.0717 7.128 22.0117 7.116 21.9557 7.108C21.9077 7.108 21.8797 7.156 21.8717 7.252C21.7117 7.46 21.4677 7.564 21.1397 7.564C20.8197 7.564 20.5477 7.464 20.3237 7.264C20.0757 7.056 19.9877 6.812 20.0597 6.532C20.1397 6.244 20.2277 5.952 20.3237 5.656C20.4197 5.352 20.5237 5.04 20.6357 4.72C20.8277 4.16 21.0397 3.576 21.2717 2.968C21.1037 3.16 20.8757 3.524 20.5877 4.06C20.2997 4.588 20.1197 4.904 20.0477 5.008C19.9117 5.28 19.7997 5.496 19.7117 5.656C19.6237 5.808 19.5037 5.932 19.3517 6.028C19.2077 6.116 19.0717 6.172 18.9437 6.196C18.8237 6.22 18.7077 6.224 18.5957 6.208C18.3317 6.168 18.1437 6.056 18.0317 5.872C18.0077 5.808 17.9837 5.744 17.9597 5.68C17.9357 5.616 17.9157 5.528 17.8997 5.416C17.8757 5.168 17.9077 4.764 17.9957 4.204L17.9717 4.24C18.0677 4.144 18.0997 4.12 18.0677 4.168C17.7477 4.624 17.5557 4.916 17.4917 5.044C17.4277 5.172 17.3597 5.316 17.2877 5.476C17.2157 5.628 17.1317 5.808 17.0357 6.016C16.9397 6.216 16.8637 6.396 16.8077 6.556C16.7517 6.716 16.6837 6.872 16.6037 7.024C16.2437 7.648 15.6117 7.9 14.7077 7.78C14.5157 7.756 14.3517 7.708 14.2157 7.636C14.0797 7.572 14.0237 7.472 14.0477 7.336C14.1117 7.016 14.2597 6.484 14.4917 5.74C14.9477 4.268 15.2197 3.32 15.3077 2.896C15.3637 2.752 15.4117 2.604 15.4517 2.452C15.4997 2.3 15.5477 2.168 15.5957 2.056C15.6917 1.792 15.8317 1.7 16.0157 1.78ZM20.1797 4.744V4.768C20.1957 4.736 20.1957 4.728 20.1797 4.744ZM29.0429 1.852L29.0909 1.864C29.1069 1.864 29.1149 1.868 29.1149 1.876C29.3229 1.796 29.4949 1.856 29.6309 2.056C29.7189 2.192 29.7869 2.4 29.8349 2.68C29.8509 3.064 29.8109 3.596 29.7149 4.276C29.5309 5.652 29.4309 6.472 29.4149 6.736C29.4309 7.016 29.2589 7.208 28.8989 7.312C28.5869 7.408 28.2749 7.404 27.9629 7.3C27.6349 7.188 27.4989 7.016 27.5549 6.784C27.4909 6.904 27.4269 6.988 27.3629 7.036C27.2989 7.092 27.1709 7.164 26.9789 7.252C26.7949 7.348 26.5309 7.424 26.1869 7.48C25.8429 7.544 25.4989 7.56 25.1549 7.528C24.8109 7.504 24.4949 7.42 24.2069 7.276C23.9269 7.14 23.7389 6.924 23.6429 6.628C23.4589 6.052 23.4829 5.32 23.7149 4.432C23.8749 3.848 24.1629 3.332 24.5789 2.884C25.0589 2.372 25.6029 1.948 26.2109 1.612C26.6669 1.364 27.1069 1.216 27.5309 1.168C27.6749 1.152 27.7989 1.156 27.9029 1.18C28.0149 1.204 28.1309 1.228 28.2509 1.252C28.3789 1.276 28.4989 1.312 28.6109 1.36C28.8989 1.48 29.0429 1.644 29.0429 1.852ZM26.8229 5.032C26.8789 4.92 26.9229 4.78 26.9549 4.612C26.9949 4.444 27.0469 4.26 27.1109 4.06C26.4629 4.324 25.9669 4.648 25.6229 5.032C25.2469 5.456 25.2709 5.748 25.6949 5.908C26.0629 6.004 26.3309 5.944 26.4989 5.728C26.5709 5.632 26.6349 5.512 26.6909 5.368C26.7469 5.224 26.8149 5.076 26.8949 4.924C26.8709 4.964 26.8469 5 26.8229 5.032ZM31.9845 1.804C32.5205 1.588 32.8805 1.584 33.0645 1.792C33.1605 1.904 33.2085 2.06 33.2085 2.26V2.32C33.5045 1.976 34.0205 1.688 34.7565 1.456C35.5325 1.216 36.1725 1.148 36.6765 1.252C37.3325 1.388 37.7005 1.816 37.7805 2.536C37.8445 3.144 37.7045 3.916 37.3605 4.852C37.2485 5.092 37.1605 5.288 37.0965 5.44C37.0405 5.584 36.9885 5.716 36.9405 5.836C36.8365 6.06 36.6725 6.328 36.4485 6.64C36.3205 6.88 36.1205 7.064 35.8485 7.192C35.5845 7.32 35.3205 7.392 35.0565 7.408C34.8005 7.432 34.5885 7.392 34.4205 7.288C34.2525 7.192 34.2045 7.036 34.2765 6.82C34.4605 6.324 34.6125 5.872 34.7325 5.464C34.8525 5.056 34.9765 4.708 35.1045 4.42C35.2245 4.012 35.2405 3.756 35.1525 3.652C35.0805 3.572 34.9565 3.584 34.7805 3.688C34.6285 3.784 34.5205 3.896 34.4565 4.024C34.3125 4.128 34.0405 4.544 33.6405 5.272C33.5285 5.472 33.4165 5.672 33.3045 5.872C33.2005 6.064 33.1005 6.244 33.0045 6.412C32.9165 6.58 32.8365 6.72 32.7645 6.832C32.7005 6.944 32.6405 7.016 32.5845 7.048C32.5365 7.088 32.4925 7.112 32.4525 7.12C32.4205 7.136 32.3925 7.152 32.3685 7.168C32.3445 7.184 32.3245 7.236 32.3085 7.324C32.2765 7.508 32.0845 7.644 31.7325 7.732C31.1645 7.876 30.6525 7.852 30.1965 7.66C30.0445 7.596 29.9245 7.508 29.8365 7.396C29.6525 7.028 29.9685 5.776 30.7845 3.64C31.0725 2.888 31.2605 2.44 31.3485 2.296C31.5485 1.992 31.6765 1.82 31.7325 1.78C31.7965 1.74 31.8805 1.748 31.9845 1.804ZM40.3526 7.456C40.2566 7.648 40.1126 7.816 39.9206 7.96C39.7366 8.112 39.5486 8.216 39.3566 8.272C39.1726 8.336 39.0486 8.368 38.9846 8.368C38.9206 8.368 38.7566 8.348 38.4926 8.308H38.4806C38.4726 8.308 38.4606 8.3 38.4446 8.284C38.0286 8.092 37.8206 7.832 37.8206 7.504C37.8206 7.216 37.9686 6.928 38.2646 6.64C38.6646 6.256 39.0966 6.08 39.5606 6.112C39.6166 6.12 39.7486 6.152 39.9566 6.208C39.9806 6.232 39.9966 6.244 40.0046 6.244C40.4606 6.596 40.5766 7 40.3526 7.456Z" fill="black"/>
</svg>
